<?xml version="1.0" encoding="UTF-8" standalone="no"?>
<!DOCTYPE svg PUBLIC "-//W3C//DTD SVG 1.1//EN" "http://www.w3.org/Graphics/SVG/1.1/DTD/svg11.dtd">
<svg width="100%" height="100%" viewBox="0 0 1000 1000" version="1.1" xmlns="http://www.w3.org/2000/svg" xmlns:xlink="http://www.w3.org/1999/xlink" xml:space="preserve" xmlns:serif="http://www.serif.com/" style="fill-rule:evenodd;clip-rule:evenodd;stroke-linecap:round;stroke-linejoin:round;stroke-miterlimit:1.5;">
    <g transform="matrix(1.14069,0,0,1.07154,-140.691,-71.5358)">
        <path d="M1000,159.894L1000,906.866C1000,958.268 960.798,1000 912.513,1000L210.826,1000C162.54,1000 123.339,958.268 123.339,906.866L123.339,159.894C123.339,108.492 162.54,66.76 210.826,66.76L912.513,66.76C960.798,66.76 1000,108.492 1000,159.894Z" style="fill:white;"/>
    </g>
    <g transform="matrix(1.40441,0,0,1.40441,-205.94,-197.084)">
        <g transform="matrix(3.64476,0,0,3.64476,-1155.76,-1676.94)">
            <path d="M454.719,603.05L456.352,613.432L464.097,607.997L458.662,615.742L469.044,617.375L458.662,619.009L464.097,626.753L456.352,621.319L454.719,631.7L453.086,621.319L445.341,626.753L450.776,619.009L440.394,617.375L450.776,615.742L445.341,607.997L453.086,613.432L454.719,603.05Z" style="fill:rgb(8,6,5);"/>
        </g>
        <g transform="matrix(1.38937,0,0,1.38937,-183.02,-197.814)">
            <g transform="matrix(0.5,0,0,0.5,186.822,267.854)">
                <circle cx="223.661" cy="574.236" r="5.18" style="fill:rgb(8,6,5);"/>
            </g>
            <g transform="matrix(1,0,0,1,30.6063,-65.9069)">
                <path d="M409.788,620.879C399.037,620.879 390.31,629.607 390.31,640.357C390.31,629.607 381.582,620.879 370.831,620.879C381.582,620.879 390.31,612.151 390.31,601.4C390.31,612.151 399.037,620.879 409.788,620.879Z" style="fill:white;stroke:black;stroke-width:2.5px;"/>
            </g>
            <g transform="matrix(1,0,0,1,0.40951,1.29489)">
                <rect x="320.132" y="552.382" width="69.705" height="2.59" style="fill:rgb(8,6,5);"/>
            </g>
            <g transform="matrix(1,0,0,1,136.913,-19.2643)">
                <circle cx="223.661" cy="574.236" r="5.18" style="fill:rgb(8,6,5);"/>
            </g>
        </g>
        <g transform="matrix(-1.38937,0,0,1.38937,1184.99,-197.814)">
            <g transform="matrix(0.5,0,0,0.5,186.822,267.854)">
                <circle cx="223.661" cy="574.236" r="5.18" style="fill:rgb(8,6,5);"/>
            </g>
            <g transform="matrix(1,0,0,1,30.6063,-65.9069)">
                <path d="M409.788,620.879C399.037,620.879 390.31,629.607 390.31,640.357C390.31,629.607 381.582,620.879 370.831,620.879C381.582,620.879 390.31,612.151 390.31,601.4C390.31,612.151 399.037,620.879 409.788,620.879Z" style="fill:white;stroke:black;stroke-width:2.5px;"/>
            </g>
            <g transform="matrix(1,0,0,1,0.40951,1.29489)">
                <rect x="320.132" y="552.382" width="69.705" height="2.59" style="fill:rgb(8,6,5);"/>
            </g>
            <g transform="matrix(1,0,0,1,136.913,-19.2643)">
                <circle cx="223.661" cy="574.236" r="5.18" style="fill:rgb(8,6,5);"/>
            </g>
        </g>
    </g>
    <g transform="matrix(9.66665,0,0,9.28658,-4624.83,-2942.82)">
        <g transform="matrix(12,0,0,12,488.927,370.653)">
            <path d="M0.18,-0.387L0.55,-0.387L0.55,-0.324L0.18,-0.324L0.18,-0.387ZM0.188,-0.064L0.609,-0.064L0.609,-0L0.114,-0L0.114,-0.7L0.594,-0.7L0.594,-0.636L0.188,-0.636L0.188,-0.064Z" style="fill-rule:nonzero;"/>
        </g>
        <g transform="matrix(12,0,0,12,497.977,370.653)">
            <path d="M0.114,-0L0.114,-0.7L0.376,-0.7C0.435,-0.7 0.486,-0.69 0.529,-0.671C0.572,-0.652 0.605,-0.625 0.628,-0.589C0.651,-0.553 0.662,-0.511 0.662,-0.46C0.662,-0.411 0.651,-0.368 0.628,-0.332C0.605,-0.296 0.572,-0.269 0.529,-0.25C0.486,-0.231 0.435,-0.221 0.376,-0.221L0.155,-0.221L0.188,-0.256L0.188,-0L0.114,-0ZM0.188,-0.25L0.155,-0.286L0.374,-0.286C0.444,-0.286 0.497,-0.301 0.534,-0.331C0.57,-0.362 0.588,-0.405 0.588,-0.46C0.588,-0.516 0.57,-0.56 0.534,-0.59C0.497,-0.62 0.444,-0.636 0.374,-0.636L0.155,-0.636L0.188,-0.671L0.188,-0.25Z" style="fill-rule:nonzero;"/>
        </g>
        <g transform="matrix(12,0,0,12,507.492,370.653)">
            <path d="M0.626,-0.7L0.699,-0.7L0.699,-0L0.626,-0L0.626,-0.7ZM0.188,-0L0.114,-0L0.114,-0.7L0.188,-0.7L0.188,-0ZM0.633,-0.323L0.18,-0.323L0.18,-0.388L0.633,-0.388L0.633,-0.323Z" style="fill-rule:nonzero;"/>
        </g>
        <g transform="matrix(12,0,0,12,518.27,370.653)">
            <path d="M0.18,-0.387L0.55,-0.387L0.55,-0.324L0.18,-0.324L0.18,-0.387ZM0.188,-0.064L0.609,-0.064L0.609,-0L0.114,-0L0.114,-0.7L0.594,-0.7L0.594,-0.636L0.188,-0.636L0.188,-0.064Z" style="fill-rule:nonzero;"/>
        </g>
        <g transform="matrix(12,0,0,12,527.32,370.653)">
            <path d="M0.114,-0L0.114,-0.7L0.175,-0.7L0.495,-0.154L0.463,-0.154L0.78,-0.7L0.841,-0.7L0.841,-0L0.77,-0L0.77,-0.589L0.787,-0.589L0.495,-0.089L0.46,-0.089L0.166,-0.589L0.185,-0.589L0.185,-0L0.114,-0Z" style="fill-rule:nonzero;"/>
        </g>
        <g transform="matrix(12,0,0,12,539.805,370.653)">
            <path d="M0.18,-0.387L0.55,-0.387L0.55,-0.324L0.18,-0.324L0.18,-0.387ZM0.188,-0.064L0.609,-0.064L0.609,-0L0.114,-0L0.114,-0.7L0.594,-0.7L0.594,-0.636L0.188,-0.636L0.188,-0.064Z" style="fill-rule:nonzero;"/>
        </g>
        <g transform="matrix(12,0,0,12,548.855,370.653)">
            <path d="M0.114,-0L0.114,-0.7L0.376,-0.7C0.435,-0.7 0.486,-0.69 0.529,-0.671C0.572,-0.652 0.605,-0.625 0.628,-0.589C0.651,-0.553 0.662,-0.511 0.662,-0.46C0.662,-0.411 0.651,-0.368 0.628,-0.333C0.605,-0.297 0.572,-0.27 0.529,-0.251C0.486,-0.231 0.435,-0.222 0.376,-0.222L0.155,-0.222L0.188,-0.256L0.188,-0L0.114,-0ZM0.592,-0L0.412,-0.254L0.492,-0.254L0.673,-0L0.592,-0ZM0.188,-0.25L0.155,-0.285L0.374,-0.285C0.444,-0.285 0.497,-0.3 0.534,-0.331C0.57,-0.362 0.588,-0.405 0.588,-0.46C0.588,-0.516 0.57,-0.56 0.534,-0.59C0.497,-0.62 0.444,-0.636 0.374,-0.636L0.155,-0.636L0.188,-0.671L0.188,-0.25Z" style="fill-rule:nonzero;"/>
        </g>
        <g transform="matrix(12,0,0,12,558.555,370.653)">
            <rect x="0.114" y="-0.7" width="0.073" height="0.7" style="fill-rule:nonzero;"/>
        </g>
        <g transform="matrix(12,0,0,12,563.197,370.653)">
            <path d="M0.307,0.006C0.255,0.006 0.205,-0.002 0.157,-0.019C0.11,-0.036 0.073,-0.058 0.047,-0.085L0.076,-0.142C0.101,-0.118 0.134,-0.098 0.176,-0.081C0.217,-0.065 0.261,-0.057 0.307,-0.057C0.351,-0.057 0.387,-0.062 0.414,-0.073C0.442,-0.084 0.462,-0.099 0.475,-0.118C0.489,-0.137 0.495,-0.158 0.495,-0.181C0.495,-0.208 0.487,-0.23 0.472,-0.246C0.456,-0.263 0.436,-0.276 0.41,-0.286C0.385,-0.296 0.356,-0.304 0.326,-0.311C0.295,-0.318 0.265,-0.326 0.234,-0.335C0.203,-0.343 0.175,-0.354 0.15,-0.368C0.124,-0.382 0.103,-0.4 0.088,-0.424C0.072,-0.447 0.064,-0.477 0.064,-0.514C0.064,-0.548 0.074,-0.58 0.092,-0.609C0.11,-0.638 0.138,-0.662 0.176,-0.68C0.214,-0.698 0.262,-0.706 0.322,-0.706C0.361,-0.706 0.4,-0.701 0.439,-0.69C0.478,-0.679 0.511,-0.663 0.539,-0.644L0.514,-0.585C0.484,-0.605 0.453,-0.62 0.419,-0.629C0.385,-0.638 0.353,-0.643 0.322,-0.643C0.279,-0.643 0.244,-0.637 0.217,-0.626C0.189,-0.614 0.169,-0.599 0.156,-0.58C0.144,-0.561 0.137,-0.54 0.137,-0.516C0.137,-0.489 0.145,-0.467 0.161,-0.45C0.176,-0.434 0.197,-0.421 0.222,-0.411C0.248,-0.401 0.276,-0.393 0.307,-0.386C0.337,-0.378 0.368,-0.37 0.399,-0.362C0.429,-0.353 0.457,-0.342 0.483,-0.329C0.508,-0.315 0.529,-0.297 0.545,-0.274C0.56,-0.251 0.568,-0.221 0.568,-0.185C0.568,-0.151 0.559,-0.119 0.54,-0.09C0.522,-0.061 0.493,-0.038 0.454,-0.02C0.416,-0.002 0.367,0.006 0.307,0.006Z" style="fill-rule:nonzero;"/>
        </g>
    </g>
</svg>
